<?xml version="1.0" encoding="UTF-8"?>
<svg width="68px" height="58px" viewBox="0 0 68 58" version="1.1" xmlns="http://www.w3.org/2000/svg" xmlns:xlink="http://www.w3.org/1999/xlink">
    <!-- Generator: Sketch 48.1 (47250) - http://www.bohemiancoding.com/sketch -->
    <title>Icon Copy 2</title>
    <desc>Created with Sketch.</desc>
    <defs>
        <polygon id="path-1" points="0.00028 0.0662666667 55.9337333 0.0662666667 55.9337333 56 0.00028 56"></polygon>
    </defs>
    <g id="Symbols" stroke="none" stroke-width="1" fill="none" fill-rule="evenodd">
        <g id="Icon-Copy-2">
            <g id="Page-1" transform="translate(6.000000, 1.000000)">
                <path d="M8.86677035,46 C8.64532573,46 8.42293071,45.915412 8.25375842,45.7462361 C7.91541386,45.4078842 7.91541386,44.8594881 8.25375842,44.5211362 L17.5202177,35.2544767 C17.8585623,34.9151744 18.407897,34.9151744 18.7462416,35.2544767 C19.0845861,35.5928286 19.0845861,36.1412248 18.7462416,36.4795766 L9.47978227,45.7462361 C9.31060999,45.915412 9.08821496,46 8.86677035,46" id="Fill-1" fill="#5D219D"></path>
                <path d="M19.1289398,15 L7.87106017,15 C7.38968481,15 7,14.5523862 7,13.9994515 C7,13.4476138 7.38968481,13 7.87106017,13 L19.1289398,13 C19.6093601,13 20,13.4476138 20,13.9994515 C20,14.5523862 19.6093601,15 19.1289398,15" id="Fill-3" fill="#5D219D"></path>
                <path d="M48.1289398,15 L36.8710602,15 C36.3896848,15 36,14.5523862 36,13.9994515 C36,13.4476138 36.3896848,13 36.8710602,13 L48.1289398,13 C48.6093601,13 49,13.4476138 49,13.9994515 C49,14.5523862 48.6093601,15 48.1289398,15" id="Fill-5" fill="#5D219D"></path>
                <path d="M48.1289398,39 L36.8710602,39 C36.3896848,39 36,38.5523862 36,37.9994515 C36,37.4476138 36.3896848,37 36.8710602,37 L48.1289398,37 C48.6093601,37 49,37.4476138 49,37.9994515 C49,38.5523862 48.6093601,39 48.1289398,39" id="Fill-7" fill="#5D219D"></path>
                <path d="M48.1289398,45 L36.8710602,45 C36.3896848,45 36,44.5523862 36,43.9994515 C36,43.4476138 36.3896848,43 36.8710602,43 L48.1289398,43 C48.6093601,43 49,43.4476138 49,43.9994515 C49,44.5523862 48.6093601,45 48.1289398,45" id="Fill-9" fill="#5D219D"></path>
                <path d="M18.1332297,46 C17.911785,46 17.68939,45.915412 17.5202177,45.7462361 L8.25375842,36.4795766 C7.91541386,36.1412248 7.91541386,35.5928286 8.25375842,35.2544767 C8.59210299,34.9151744 9.14143771,34.9151744 9.47978227,35.2544767 L18.7462416,44.5211362 C19.0845861,44.8594881 19.0845861,45.4078842 18.7462416,45.7462361 C18.5770693,45.915412 18.3546743,46 18.1332297,46" id="Fill-11" fill="#5D219D"></path>
                <path d="M48.1289398,45 L36.8710602,45 C36.3896848,45 36,44.5523862 36,43.9994515 C36,43.4476138 36.3896848,43 36.8710602,43 L48.1289398,43 C48.6093601,43 49,43.4476138 49,43.9994515 C49,44.5523862 48.6093601,45 48.1289398,45" id="Fill-13" fill="#5D219D"></path>
                <path d="M14,21 C13.4484649,21 13,20.6102866 13,20.1288758 L13,8.87016899 C13,8.38971345 13.4484649,8 14,8 C14.5515351,8 15,8.38971345 15,8.87016899 L15,20.1288758 C15,20.6102866 14.5515351,21 14,21" id="Fill-15" fill="#5D219D"></path>
                <path d="M51.1484428,28 L4.85155718,28 C4.38095979,28 4,27.5523862 4,26.9994515 C4,26.4476138 4.38095979,26 4.85155718,26 L51.1484428,26 C51.6181065,26 52,26.4476138 52,26.9994515 C52,27.5523862 51.6181065,28 51.1484428,28" id="Fill-17" fill="#5D219D"></path>
                <g id="Group-21">
                    <mask id="mask-2" fill="white">
                        <use xlink:href="#path-1"></use>
                    </mask>
                    <g id="Clip-20"></g>
                    <path d="M51.2748133,56 L4.65948,56 C2.09001333,56 0.00028,53.9102667 0.00028,51.3408 L0.00028,4.72546667 C0.00028,2.156 2.09001333,0.0662666667 4.65948,0.0662666667 L21.09548,0.0662666667 C21.5649467,0.0662666667 21.9457467,0.447066667 21.9457467,0.916533333 C21.9457467,1.38693333 21.5649467,1.76773333 21.09548,1.76773333 L4.65948,1.76773333 C3.02894667,1.76773333 1.70174667,3.094 1.70174667,4.72546667 L1.70174667,51.3408 C1.70174667,52.9713333 3.02894667,54.2985333 4.65948,54.2985333 L51.2748133,54.2985333 C52.9053467,54.2985333 54.2325467,52.9713333 54.2325467,51.3408 L54.2325467,4.72546667 C54.2325467,3.094 52.9053467,1.76773333 51.2748133,1.76773333 L28.81788,1.76773333 L28.81788,50.2432 C28.81788,50.7126667 28.43708,51.0944 27.9676133,51.0944 C27.4972133,51.0944 27.1164133,50.7126667 27.1164133,50.2432 L27.1164133,0.916533333 C27.1164133,0.447066667 27.4972133,0.0662666667 27.9676133,0.0662666667 L51.2748133,0.0662666667 C53.84428,0.0662666667 55.9340133,2.156 55.9340133,4.72546667 L55.9340133,51.3408 C55.9340133,53.9102667 53.84428,56 51.2748133,56" id="Fill-19" fill="#5D219D" mask="url(#mask-2)"></path>
                </g>
            </g>
        </g>
    </g>
</svg>