<?xml version="1.0" encoding="UTF-8"?>
<svg width="253px" height="253px" viewBox="0 0 253 253" version="1.1" xmlns="http://www.w3.org/2000/svg" xmlns:xlink="http://www.w3.org/1999/xlink">
    <!-- Generator: Sketch 48.1 (47250) - http://www.bohemiancoding.com/sketch -->
    <title>emoji-smile</title>
    <desc>Created with Sketch.</desc>
    <defs></defs>
    <g id="Page-1" stroke="none" stroke-width="1" fill="none" fill-rule="evenodd">
        <g id="emoji-smile" fill="#000000" fill-rule="nonzero">
            <g id="if_face-happy_414573">
                <path d="M126.5,253 C56.7471094,253 0,196.252891 0,126.5 C0,56.7471094 56.7471094,0 126.5,0 C196.252891,0 253,56.7471094 253,126.5 C253,196.252891 196.252891,253 126.5,253 Z M126.5,15.8125 C65.4677031,15.8125 15.8125,65.4677031 15.8125,126.5 C15.8125,187.534273 65.4677031,237.1875 126.5,237.1875 C187.534273,237.1875 237.1875,187.534273 237.1875,126.5 C237.1875,65.4677031 187.534273,15.8125 126.5,15.8125 Z" id="Shape"></path>
                <g id="Group" transform="translate(71.000000, 78.000000)">
                    <ellipse id="Oval" cx="15.8571429" cy="16.5" rx="15.8571429" ry="16"></ellipse>
                    <ellipse id="Oval" cx="95.1428571" cy="16.5" rx="15.8571429" ry="16"></ellipse>
                </g>
                <path d="M126,204 C97.2649164,204 70.4645698,188.594084 56.0615282,163.792976 C53.8802652,160.037256 55.1681176,155.230641 58.938981,153.058138 C62.7078722,150.883671 67.5378118,152.17028 69.7171026,155.924035 C81.3117187,175.885137 102.877823,188.285691 126,188.285691 C149.122177,188.285691 170.686309,175.887101 182.282897,155.924035 C184.46416,152.168315 189.290156,150.883671 193.061019,153.058138 C196.831882,155.228677 198.119735,160.037256 195.938472,163.792976 C181.533458,188.594084 154.733111,204 126,204 Z" id="Shape"></path>
            </g>
        </g>
    </g>
</svg>