<?xml version="1.0" encoding="UTF-8"?>
<svg width="68px" height="58px" viewBox="0 0 68 58" version="1.1" xmlns="http://www.w3.org/2000/svg" xmlns:xlink="http://www.w3.org/1999/xlink">
    <!-- Generator: Sketch 48.1 (47250) - http://www.bohemiancoding.com/sketch -->
    <title>Icon Copy 5</title>
    <desc>Created with Sketch.</desc>
    <defs></defs>
    <g id="Symbols" stroke="none" stroke-width="1" fill="none" fill-rule="evenodd">
        <g id="Icon-Copy-5" fill-rule="nonzero">
            <path d="M4.07128713,50.8541667 L4.07128713,6.49166667 L6.09762376,5.67908333 C11.5766337,3.48866667 16.1621782,2.46841667 20.5308911,2.46841667 C24.5859406,2.4725 28.7918812,3.34225 33.7445545,5.20308333 C38.7025743,3.34108333 42.9037624,2.4725 46.9558416,2.46841667 C51.3227723,2.46841667 55.9089109,3.48866667 61.3914851,5.6785 L63.4178218,6.49166667 L63.4178218,50.8524167 L58.9386139,49.068 C54.2746535,47.2054167 50.4679208,46.338 46.9570297,46.3374167 C43.8388119,46.3374167 40.3980198,47.0455833 36.4380198,48.5033333 L33.7451485,49.551 L31.0332673,48.49575 C27.0910891,47.0461667 23.6485149,46.3374167 20.5308911,46.3374167 C17.0194059,46.338 13.2120792,47.2048333 8.54871287,49.0674167 L4.07128713,50.8541667 Z M46.9576238,44.00525 C50.7857426,44.0058333 54.8770297,44.9275 59.8338614,46.9079167 L61.0421782,47.3885833 L61.0421782,8.05908333 L60.4944554,7.83975 C55.3077228,5.76775 51.0055446,4.80233333 46.9576238,4.80233333 C43.1211881,4.80641667 39.0970297,5.66216667 34.2940594,7.49675 L33.7481188,7.71316667 L33.1855446,7.49208333 C28.3908911,5.66216667 24.3655446,4.80641667 20.530297,4.80233333 C16.4805941,4.80233333 12.1790099,5.76775 6.99524752,7.84033333 L6.44811881,8.05966667 L6.44811881,47.388 L7.65524752,46.90675 C12.6108911,44.9275 16.7021782,44.0058333 20.5314851,44.00525 C23.9390099,44.00525 27.6536634,44.7624167 31.8881188,46.3199167 L33.7457426,47.0420833 L35.5843564,46.3275 C39.8354455,44.7624167 43.5489109,44.00525 46.9576238,44.00525 Z" id="Shape" fill="#4F268C"></path>
            <path d="M27.8485149,34.5313333 C27.7742574,34.5313333 27.6988119,34.5243333 27.6227723,34.50975 C24.8728713,33.99 22.619604,33.7485 20.5308911,33.7485 C18.4546535,33.7485 16.2031683,33.9905833 13.4443564,34.5109167 C12.8039604,34.6328333 12.1778218,34.2169167 12.0536634,33.5845833 C11.930099,32.9510833 12.3518812,32.33975 12.9964356,32.2184167 C15.9061386,31.6706667 18.300198,31.4151667 20.5308911,31.4151667 C22.7734653,31.4151667 25.169901,31.6706667 28.0712871,32.2184167 C28.7158416,32.3403333 29.1376238,32.95225 29.0134653,33.5845833 C28.9047525,34.1428333 28.4069307,34.5313333 27.8485149,34.5313333 Z M39.64,34.5313333 C39.0815842,34.5313333 38.5837624,34.1428333 38.4744554,33.5845833 C38.350297,32.95225 38.7726733,32.3403333 39.4166337,32.2184167 C42.319802,31.6706667 44.7162376,31.4151667 46.9570297,31.4151667 C49.1877228,31.4151667 51.5823762,31.6706667 54.4932673,32.2184167 C55.1378218,32.33975 55.559604,32.9510833 55.4360396,33.584 C55.3124752,34.2169167 54.6958416,34.6328333 54.0453465,34.5109167 C51.2859406,33.9905833 49.0338614,33.7485 46.9570297,33.7485 C44.870099,33.7485 42.6162376,33.99 39.8651485,34.50975 C39.789703,34.5243333 39.7142574,34.5313333 39.64,34.5313333 Z M39.64,26.0041667 C39.0821782,26.0041667 38.5843564,25.61625 38.4744554,25.0585833 C38.350297,24.4256667 38.7720792,23.8143333 39.4160396,23.6918333 C42.3085149,23.1446667 44.7043564,22.8891667 46.9570297,22.8891667 C49.210297,22.8891667 51.6049505,23.1446667 54.4944554,23.6918333 C55.1390099,23.81375 55.560198,24.42625 55.4360396,25.0585833 C55.3112871,25.6909167 54.6863366,26.1039167 54.0441584,25.9825833 C51.3073267,25.4634167 49.0552475,25.2219167 46.9570297,25.2219167 C44.8588119,25.2219167 42.6061386,25.464 39.8657426,25.9825833 C39.790297,25.9971667 39.7142574,26.0041667 39.64,26.0041667 Z M27.8485149,26.0041667 C27.7742574,26.0041667 27.6982178,25.9971667 27.6221782,25.9831667 C24.8835644,25.464 22.630297,25.2225 20.5308911,25.2225 C18.4332673,25.2225 16.1811881,25.4645833 13.4437624,25.9831667 C12.7968317,26.1045 12.1760396,25.6909167 12.0518812,25.0591667 C11.9277228,24.4268333 12.3489109,23.8143333 12.9934653,23.6924167 C15.8823762,23.14525 18.2776238,22.88975 20.5308911,22.88975 C22.7847525,22.88975 25.1811881,23.14525 28.0718812,23.6924167 C28.7164356,23.8143333 29.1376238,24.42625 29.0134653,25.0591667 C28.9041584,25.61625 28.4063366,26.0041667 27.8485149,26.0041667 Z M39.64,17.4880833 C39.0821782,17.4880833 38.5843564,17.1001667 38.4744554,16.5419167 C38.350297,15.9095833 38.7720792,15.2976667 39.4160396,15.1751667 C42.3162376,14.62625 44.7120792,14.3695833 46.9564356,14.3684167 C46.9653465,14.3684167 46.9742574,14.3684167 46.9837624,14.3684167 C49.2227723,14.3684167 51.610297,14.6233333 54.4962376,15.1705 C55.1407921,15.2924167 55.5619802,15.9043333 55.4378218,16.53725 C55.3136634,17.1695833 54.6863366,17.5808333 54.0459406,17.4618333 C51.3120792,16.94325 49.0671287,16.70175 46.9831683,16.70175 C46.9742574,16.70175 46.9665347,16.70175 46.9582178,16.70175 C44.8677228,16.7029167 42.6138614,16.9455833 39.8663366,17.4665 C39.790297,17.4810833 39.7142574,17.4880833 39.64,17.4880833 Z M27.8485149,17.4880833 C27.7742574,17.4880833 27.6982178,17.4810833 27.6221782,17.4665 C24.8752475,16.9455833 22.6225743,16.7029167 20.5326733,16.70175 C20.5237624,16.70175 20.5160396,16.70175 20.5077228,16.70175 C18.4213861,16.70175 16.1758416,16.94325 13.4419802,17.4618333 C12.7914851,17.5808333 12.1742574,17.1695833 12.050099,16.53725 C11.9259406,15.9043333 12.3471287,15.2924167 12.9916832,15.1705 C15.8764356,14.6233333 18.2663366,14.3684167 20.5065347,14.3684167 C20.5160396,14.3684167 20.5243564,14.3684167 20.5338614,14.3684167 C22.7776238,14.3695833 25.1734653,14.62625 28.0712871,15.1751667 C28.7158416,15.2976667 29.1370297,15.909 29.0128713,16.5419167 C28.9041584,17.1001667 28.4063366,17.4880833 27.8485149,17.4880833 Z" id="Shape" fill="#4F268C"></path>
            <path d="M5.18180018,56 C4.71524803,56 4.27349992,55.6932504 4.08687907,55.1889332 C3.84179155,54.5240925 4.13294371,53.7650172 4.73768978,53.4959614 L7.56298783,52.2332188 C12.4901328,50.0281311 16.5574045,49.0012998 20.3630526,49 C23.7505755,49 27.4434243,49.8429115 31.6536145,51.5781265 L33.5003342,52.3839941 L35.3281556,51.5865751 C39.5554723,49.8422616 43.24714,49 46.6352535,49 C50.440311,49.0012998 54.5075827,50.0281311 59.4353183,52.2338687 L62.262388,53.4946616 C62.8665435,53.7650172 63.1582863,54.5227927 62.9131987,55.1882834 C62.6675206,55.853774 61.9777322,56.1735215 61.3747578,55.9038158 L58.5470975,54.642373 C53.9099235,52.5679138 50.125536,51.6008727 46.6352535,51.5995729 C43.5359299,51.5995729 40.1153349,52.3891932 36.1785797,54.0126265 L33.5015153,55.1804846 L30.8055526,54.003528 C26.885924,52.3891932 23.4641479,51.5995729 20.3648243,51.5995729 C16.8745418,51.6008727 13.0895637,52.5672639 8.45298034,54.642373 L5.62709172,55.9038158 C5.4800392,55.9688051 5.32944326,56 5.18180018,56 Z" id="Shape" fill="#562997"></path>
        </g>
    </g>
</svg>