<?xml version="1.0" encoding="UTF-8"?>
<svg width="68px" height="58px" viewBox="0 0 68 58" version="1.1" xmlns="http://www.w3.org/2000/svg" xmlns:xlink="http://www.w3.org/1999/xlink">
    <!-- Generator: Sketch 48.1 (47250) - http://www.bohemiancoding.com/sketch -->
    <title>Icon Copy</title>
    <desc>Created with Sketch.</desc>
    <defs>
        <polygon id="path-1" points="0 0 65 0 65 52 0 52"></polygon>
    </defs>
    <g id="Symbols" stroke="none" stroke-width="1" fill="none" fill-rule="evenodd">
        <g id="Icon-Copy">
            <g id="Page-1" transform="translate(2.000000, 3.000000)">
                <mask id="mask-2" fill="white">
                    <use xlink:href="#path-1"></use>
                </mask>
                <g id="Clip-2"></g>
                <path d="M25.6978484,1.5333452 C12.3637689,1.5333452 1.51574652,9.42044223 1.51574652,19.1150866 C1.51574652,24.4527765 4.81247442,29.4481342 10.5611697,32.8226712 C10.8887638,33.0152856 11.0259543,33.4223833 10.8829436,33.7764909 C9.81867837,36.4041214 8.46257163,37.8928878 7.26693614,39.2058619 C7.04244269,39.4523074 6.82044361,39.6953884 6.60343328,39.9443573 L6.47705178,40.0923928 C6.12368246,40.5028549 6.02723342,40.6525727 6.06963774,40.8544393 C6.11786226,41.1294826 6.30909742,41.284247 6.46125409,41.284247 L6.51696173,41.284247 C7.65688958,41.1294826 8.60807665,40.9494848 9.42373619,40.7358426 C12.9441261,39.8190318 16.1735059,38.3151254 19.0237413,36.2653381 C19.1892013,36.1459004 19.3954027,36.1004804 19.5957839,36.1358071 C35.5198526,39.0090419 49.8799504,30.2539184 49.8799504,19.1150866 C49.8799504,9.42044223 39.031928,1.5333452 25.6978484,1.5333452 M6.56768062,42.8175922 L6.46125409,42.8175922 C5.54083095,42.8175922 4.75011512,42.1144234 4.58132931,41.1454637 C4.38261103,40.1908028 4.93220426,39.5523996 5.33296664,39.085583 L5.45768522,38.9400708 C5.69298762,38.6709154 5.9208069,38.4202643 6.15195201,38.1670899 C7.21289142,37.0013102 8.30708913,35.8002038 9.22002916,33.7983598 C3.35077262,30.1479385 0,24.8279119 0,19.1150866 C0,8.57512576 11.5281544,0 25.6978484,0 C39.8675425,0 51.3956969,8.57512576 51.3956969,19.1150866 C51.3956969,29.6558886 39.8675425,38.2310143 25.6978484,38.2310143 C23.723969,38.2310143 21.6877302,38.0526988 19.641514,37.7011145 C16.7039756,39.7652007 13.3964388,41.2850881 9.80371214,42.2204034 C8.91737874,42.45255 7.89136052,42.6460055 6.66745549,42.8117044 C6.63502865,42.8159099 6.60093891,42.8175922 6.56768062,42.8175922 M58.5495549,52 C58.4797124,52 58.4090386,51.9957944 58.3375333,51.9865422 C57.1111339,51.8216845 56.0851156,51.628229 55.1954564,51.3944001 C51.6027297,50.4590848 48.2943614,48.9391974 45.3576545,46.8751112 C43.3131012,47.2266956 41.2776939,47.4050111 39.3013201,47.4050111 C32.9697733,47.4050111 26.8835064,45.6807337 22.1641552,42.5492778 C21.8141117,42.3171312 21.7168313,41.8410624 21.9463134,41.4869547 C22.1757956,41.1336881 22.645569,41.034437 22.9956125,41.2665836 C27.4705152,44.2365463 33.2616148,45.8716659 39.3013201,45.8716659 C41.2893343,45.8716659 43.3422022,45.6824159 45.4033847,45.3098038 C45.6037659,45.2744771 45.8099673,45.3207382 45.9754272,45.440176 C48.8256626,47.4891222 52.0550425,48.9930285 55.5737694,49.9098394 C56.4052267,50.1276871 57.3730429,50.3093671 58.5320942,50.4658137 C58.6667903,50.4868415 58.8688344,50.3043204 58.9320252,50.0200249 C58.9719351,49.8265694 58.8754861,49.6768517 58.5221168,49.2663895 L58.3849263,49.1048962 C58.1778935,48.8702263 57.9558944,48.6263041 57.7314009,48.3798586 C56.5357655,47.0660434 55.1804902,45.5781182 54.1170564,42.9513288 C53.9732143,42.5972211 54.1104047,42.1892823 54.4379989,41.997509 C60.1866941,38.622972 63.483422,33.6267732 63.483422,28.2899245 C63.483422,22.7823302 60.02456,17.6969736 53.9923378,14.3401 C53.6256652,14.13571 53.4918006,13.6688935 53.6938447,13.2979635 C53.8950573,12.9270336 54.3565161,12.7916148 54.7231887,12.9960047 C61.2542852,16.6312861 65,22.2061692 65,28.2899245 C65,34.0019087 61.6483959,39.3219352 55.7791394,42.9731977 C56.6920794,44.9742005 57.7854457,46.1753069 58.8472165,47.3402455 C59.0775302,47.594261 59.3061809,47.8457532 59.5306744,48.1014509 L59.6653704,48.2595798 C60.0445149,48.7003219 60.617389,49.3647995 60.4136819,50.3446937 C60.1983345,51.325429 59.4184277,52 58.5495549,52" id="Fill-1" fill="#461977" mask="url(#mask-2)"></path>
            </g>
        </g>
    </g>
</svg>