<?xml version="1.0" encoding="UTF-8"?>
<svg width="68px" height="58px" viewBox="0 0 68 58" version="1.1" xmlns="http://www.w3.org/2000/svg" xmlns:xlink="http://www.w3.org/1999/xlink">
    <!-- Generator: Sketch 48.1 (47250) - http://www.bohemiancoding.com/sketch -->
    <title>Icon</title>
    <desc>Created with Sketch.</desc>
    <defs>
        <polygon id="path-1" points="0.161007407 0.126976744 65.9136296 0.126976744 65.9136296 35 0.161007407 35"></polygon>
        <polygon id="path-3" points="0.000602716817 0.421666667 58.7446811 0.421666667 58.7446811 19.3041667 0.000602716817 19.3041667"></polygon>
        <polygon id="path-5" points="0 0.411225407 64.6088874 0.411225407 64.6088874 25.4925938 0 25.4925938"></polygon>
    </defs>
    <g id="Symbols" stroke="none" stroke-width="1" fill="none" fill-rule="evenodd">
        <g id="Icon">
            <g id="Page-1">
                <path d="M36.1455824,41.0972395 L36.1455824,43.4072637 C36.9868845,43.317859 37.4467628,42.9103024 37.4467628,42.3029948 C37.4467628,41.745625 37.1579826,41.3992824 36.1455824,41.0972395 M35.1064743,39.3300871 L35.1064743,37.0836933 C34.2626684,37.1586 33.8420174,37.5895145 33.8420174,38.1484953 C33.8420174,38.6833126 34.0932395,39.0127407 35.1064743,39.3300871 M35.6306188,35 C35.9469417,35 36.1973292,35.2424398 36.1973292,35.5460936 L36.1973292,35.8271948 C36.9735305,35.9157941 37.6320496,36.1574284 38.2363181,36.5247126 C38.4466436,36.6390862 38.632765,36.8291719 38.632765,37.1344366 C38.632765,37.529106 38.3030881,37.8319543 37.8941219,37.8319543 C37.7622511,37.8319543 37.6320496,37.7949037 37.5001788,37.7175807 C37.0394658,37.451783 36.5929415,37.2616973 36.1455824,37.1594054 L36.1455824,39.5991067 C38.1470132,40.0807644 39,40.8547997 39,42.215201 C39,43.6134583 37.8690831,44.5381123 36.1973292,44.6919528 L36.1973292,45.4539064 C36.1973292,45.7591711 35.9477763,46 35.6306188,46 C35.3134613,46 35.0530583,45.7599766 35.0530583,45.4539064 L35.0530583,44.6677894 C34.0656969,44.566303 33.1584595,44.2199605 32.3547156,43.6754778 C32.1310361,43.5369408 32,43.332357 32,43.0665593 C32,42.6718899 32.3154883,42.3666252 32.7227853,42.3666252 C32.881364,42.3666252 33.0382735,42.4189793 33.1567903,42.5075785 C33.7769167,42.9392985 34.3811852,43.2292597 35.1056397,43.3565205 L35.1056397,40.8547997 C33.181829,40.373142 32.2862764,39.6732079 32.2862764,38.2387054 C32.2862764,36.881526 33.4055085,35.9399575 35.0513891,35.8143077 L35.0513891,35.5460936 C35.0530583,35.2440507 35.3151306,35 35.6306188,35" id="Fill-1" fill="#4F268C"></path>
                <g id="Group-5" transform="translate(2.000000, 23.000000)">
                    <mask id="mask-2" fill="white">
                        <use xlink:href="#path-1"></use>
                    </mask>
                    <g id="Clip-4"></g>
                    <path d="M62.6002667,35 L57.1377481,35 C56.7270815,35 56.394637,34.667907 56.394637,34.2576744 C56.394637,33.8482558 56.7270815,33.5161628 57.1377481,33.5161628 L62.6002667,33.5161628 C63.6081926,33.5161628 64.4278963,32.6965116 64.4278963,31.6896512 L64.4278963,3.43732558 C64.4278963,2.43046512 63.6081926,1.61081395 62.6002667,1.61081395 L3.47485926,1.61081395 C2.46693333,1.61081395 1.64722963,2.43046512 1.64722963,3.43732558 L1.64722963,31.6896512 C1.64722963,32.6965116 2.46693333,33.5161628 3.47485926,33.5161628 L49.5860444,33.5161628 C49.9967111,33.5161628 50.3291556,33.8482558 50.3291556,34.2576744 C50.3291556,34.667907 49.9967111,35 49.5860444,35 L3.47485926,35 C1.64804444,35 0.161007407,33.5153488 0.161007407,31.6896512 L0.161007407,3.43732558 C0.161007407,1.61162791 1.64804444,0.126976744 3.47485926,0.126976744 L62.6002667,0.126976744 C64.4270815,0.126976744 65.9141185,1.61162791 65.9141185,3.43732558 L65.9141185,31.6896512 C65.9141185,33.5153488 64.4270815,35 62.6002667,35" id="Fill-3" fill="#4F268C" mask="url(#mask-2)"></path>
                </g>
                <path d="M34.5,31.4737268 C29.522827,31.4737268 25.4744784,35.5230396 25.4744784,40.5004042 C25.4744784,45.4769604 29.522827,49.5262732 34.5,49.5262732 C39.477173,49.5262732 43.5255216,45.4769604 43.5255216,40.5004042 C43.5255216,35.5230396 39.477173,31.4737268 34.5,31.4737268 M34.5,51 C28.7104088,51 24,46.2902183 24,40.5004042 C24,34.7097817 28.7104088,30 34.5,30 C40.2895912,30 45,34.7097817 45,40.5004042 C45,46.2902183 40.2895912,51 34.5,51" id="Fill-6" fill="#4F268C"></path>
                <g id="Group-10">
                    <mask id="mask-4" fill="white">
                        <use xlink:href="#path-3"></use>
                    </mask>
                    <g id="Clip-9"></g>
                    <path d="M0.829851389,19.3041667 C0.500434722,19.3041667 0.198879167,19.0808333 0.108740278,18.7416667 C-0.107593056,17.9241667 0.00303194444,17.0708333 0.419309722,16.3383333 C0.8355875,15.6066667 1.50753194,15.0825 2.31222639,14.8625 L54.9058097,0.5325 C55.7080458,0.310833333 56.5479764,0.424166667 57.2682681,0.8475 C57.9893792,1.27 58.5048097,1.95416667 58.7195042,2.7725 C58.8252125,3.1775 58.5883931,3.59416667 58.1901431,3.7025 C57.7910736,3.81083333 57.3821708,3.56916667 57.2756431,3.16416667 C57.1641986,2.73833333 56.8962403,2.3825 56.5217542,2.16333333 C56.1472681,1.94333333 55.7113236,1.88416667 55.2934069,2 L2.69900417,16.33 C2.27944861,16.4441667 1.92954583,16.7175 1.71239306,17.0983333 C1.49687917,17.4791667 1.43951806,17.9225 1.55178194,18.3475 C1.65912917,18.7516667 1.42312917,19.1691667 1.02487917,19.2783333 C0.959323611,19.2958333 0.893768056,19.3041667 0.829851389,19.3041667" id="Fill-8" fill="#4F268C" mask="url(#mask-4)"></path>
                </g>
                <g id="Group-13">
                    <mask id="mask-6" fill="white">
                        <use xlink:href="#path-5"></use>
                    </mask>
                    <g id="Clip-12"></g>
                    <path d="M2.55812025,25.4925938 C2.22324684,25.4925938 1.91881646,25.2699688 1.83160127,24.9352188 L0.107044304,18.2645937 C-0.107702532,17.4764687 0.00255063291,16.6436562 0.420525316,15.9294687 C0.8385,15.2160937 1.51318354,14.7050312 2.32115823,14.4905312 L55.1299557,0.51959375 C55.935462,0.30346875 56.7779937,0.41315625 57.5020443,0.82590625 C58.2252722,1.23865625 58.7428038,1.90490625 58.9583734,2.70359375 L64.5829304,23.4312813 C64.6907152,23.8261563 64.4529304,24.2324063 64.053057,24.3380313 C63.6531835,24.4452813 63.2417911,24.2096563 63.1340063,23.8147813 L57.5094494,3.08546875 C57.3967278,2.67028125 57.1276772,2.32334375 56.7516646,2.10884375 C56.3756519,1.89515625 55.9379304,1.83746875 55.5191329,1.94959375 L2.71033544,15.9213437 C2.28906962,16.0334687 1.93691772,16.2999687 1.71970253,16.6712812 C1.50248734,17.0417812 1.44489241,17.4740312 1.55761392,17.8884062 L3.28546203,24.5687813 C3.38748734,24.9652813 3.14558861,25.3682813 2.74406962,25.4698438 C2.68236076,25.4852812 2.61982911,25.4925938 2.55812025,25.4925938" id="Fill-11" fill="#4F268C" mask="url(#mask-6)"></path>
                </g>
                <path d="M34.7368276,25 C34.4117571,25 34.1133714,24.7729908 34.0252304,24.4295234 C33.9201081,24.0193879 34.1529944,23.5974378 34.5467988,23.4877308 L54.0720548,18.0268524 C54.4650505,17.9154576 54.8693671,18.1610325 54.9744894,18.571168 C55.0804203,18.9813036 54.8467254,19.4032537 54.4537296,19.5129607 L34.9284736,24.9738391 C34.8645916,24.991561 34.799901,25 34.7368276,25" id="Fill-14" fill="#4F268C"></path>
                <path d="M57.5305475,18 C57.2045999,18 56.9054092,17.7883842 56.8170304,17.4682072 C56.7116244,17.0858829 56.9451391,16.692545 57.340006,16.5902772 L60.3554269,15.8067482 L58.3616329,8.596079 L36.9301715,14.1673161 C36.5361154,14.2711573 36.1307079,14.0430214 36.025302,13.6599103 C35.919896,13.2775859 36.1534107,12.8842481 36.5474668,12.7819803 L58.6932562,7.02508768 C59.0873123,6.9212465 59.4927198,7.14938244 59.5981257,7.53170682 L61.9746244,16.1277119 C62.0257058,16.311794 61.9989489,16.5076762 61.9008403,16.6720915 C61.8027316,16.8365067 61.6413795,16.9568681 61.4516488,17.0064286 L57.7218999,17.9756131 C57.6578455,17.9921332 57.5937911,18 57.5305475,18" id="Fill-16" fill="#4F268C"></path>
                <path d="M1.74533996,24 C1.41651398,24 1.11468117,23.7765139 1.02552189,23.4383768 C0.919185128,23.0346063 1.15476195,22.6192046 1.55311582,22.5112001 L29.0616179,15.0264913 C29.4591538,14.9168253 29.8681413,15.1577583 29.9744781,15.5623596 C30.0808149,15.9661301 29.845238,16.3815318 29.4468842,16.4895363 L1.93838208,23.9742451 C1.87376205,23.991692 1.80914202,24 1.74533996,24" id="Fill-18" fill="#4F268C"></path>
            </g>
        </g>
    </g>
</svg>