<?xml version="1.0" encoding="UTF-8"?>
<svg width="26px" height="26px" viewBox="0 0 26 26" version="1.1" xmlns="http://www.w3.org/2000/svg" xmlns:xlink="http://www.w3.org/1999/xlink">
    <!-- Generator: Sketch 48.2 (47327) - http://www.bohemiancoding.com/sketch -->
    <title>Shape</title>
    <desc>Created with Sketch.</desc>
    <defs></defs>
    <g id="Paying-for-College" stroke="none" stroke-width="1" fill="none" fill-rule="evenodd" transform="translate(-1051.000000, -836.000000)" stroke-linecap="round" stroke-linejoin="round">
        <path d="M1066.39991,845.399946 L1066.39991,840.599977 C1066.39991,838.611764 1064.78814,837 1062.79993,837 L1057.99996,847.79993 L1057.99996,861 L1071.53587,860.999844 C1072.73261,861.013374 1073.75641,860.143141 1073.93586,858.959858 L1075.59185,848.159928 C1075.69751,847.463759 1075.49212,846.756307 1075.03008,846.224957 C1074.56804,845.693607 1073.89596,845.391972 1073.19186,845.399946 L1066.39991,845.399946 Z M1057.99996,860.999844 L1054.39998,860.999844 C1053.07451,860.999844 1052,859.925335 1052,858.59986 L1052,850.199914 C1052,848.87444 1053.07451,847.79993 1054.39998,847.79993 L1057.99996,847.79993 L1057.99996,860.999844 Z" id="Shape" stroke="#4F268C" stroke-width="2"></path>
    </g>
</svg>