<?xml version="1.0" encoding="UTF-8"?>
<svg width="68px" height="58px" viewBox="0 0 68 58" version="1.1" xmlns="http://www.w3.org/2000/svg" xmlns:xlink="http://www.w3.org/1999/xlink">
    <!-- Generator: Sketch 48.1 (47250) - http://www.bohemiancoding.com/sketch -->
    <title>Icon Copy 3</title>
    <desc>Created with Sketch.</desc>
    <defs></defs>
    <g id="Symbols" stroke="none" stroke-width="1" fill="none" fill-rule="evenodd">
        <g id="Icon-Copy-3" fill="#5D219D">
            <g id="Page-1" transform="translate(10.000000, 1.000000)">
                <path d="M28.09956,57 C27.8686009,57 27.6385003,56.9141306 27.4624906,56.7415499 L23.2640146,52.6248685 C22.9119951,52.279707 22.9119951,51.7207139 23.2640146,51.3755525 L27.4624906,47.2588711 C27.8145101,46.9137096 28.3846099,46.9137096 28.7366293,47.2588711 C29.0877902,47.6040325 29.0877902,48.1630256 28.7366293,48.5081871 L25.1743641,52.0002105 L28.7366293,55.4922339 C29.0877902,55.8373953 29.0877902,56.3963884 28.7366293,56.7415499 C28.5606196,56.9141306 28.3305191,57 28.09956,57" id="Fill-1"></path>
                <path d="M24.8353773,53 C24.3742873,53 24,52.6205798 24,52.1513607 C24,51.6829507 24.3742873,51.3027214 24.8353773,51.3027214 C37.2386201,51.3027214 47.3292454,41.0519031 47.3292454,28.4517535 C47.3292454,19.4929056 42.1362087,11.3171681 34.0993852,7.62166357 C33.6789093,7.42831296 33.492562,6.92592497 33.6828911,6.49877383 C33.8732201,6.07243169 34.3677571,5.88231708 34.788233,6.07566769 C43.4215271,10.0446137 49,18.827909 49,28.4517535 C49,41.9879142 38.1600038,53 24.8353773,53" id="Fill-3"></path>
                <path d="M21.9005045,10 C21.6695288,10 21.4394118,9.91412334 21.2633895,9.7415281 C20.9122035,9.39633761 20.9122035,8.83729741 21.2633895,8.49210692 L24.825051,4.99978952 L21.2633895,1.50747211 C20.9122035,1.16228162 20.9122035,0.603241423 21.2633895,0.258892865 C21.6154342,-0.0862976216 22.1855748,-0.0862976216 22.5376194,0.258892865 L26.7363958,4.37507893 C26.905549,4.54093875 27,4.76573353 27,4.99978952 C27,5.23384551 26.905549,5.45864029 26.7363958,5.62450011 L22.5376194,9.7415281 C22.3615971,9.91412334 22.1314801,10 21.9005045,10" id="Fill-5"></path>
                <path d="M14.5557927,51 C14.4403211,51 14.3232568,50.9757302 14.211767,50.9239548 C5.57847291,46.9550407 0,38.1726251 0,28.5488579 C0,15.0128062 10.8399962,4 24.1646227,4 C24.6265091,4 25,4.38022617 25,4.84863246 C25,5.31703875 24.6265091,5.69726492 24.1646227,5.69726492 C11.7613799,5.69726492 1.67075463,15.9480008 1.67075463,28.5488579 C1.67075463,37.5068248 6.86379129,45.6833055 14.9006148,49.3779713 C15.3210907,49.5713204 15.507438,50.0737043 15.3179053,50.500852 C15.1777466,50.8147409 14.8735387,51 14.5557927,51" id="Fill-7"></path>
                <path d="M24,14.6608175 C16.6448702,14.6608175 10.6608613,20.6446684 10.6608613,28.0003958 C10.6608613,35.3553316 16.6448702,41.3391825 24,41.3391825 C31.3551298,41.3391825 37.3391387,35.3553316 37.3391387,28.0003958 C37.3391387,20.6446684 31.3551298,14.6608175 24,14.6608175 M24,43 C15.7289424,43 9,36.2712352 9,28.0003958 C9,19.7287648 15.7289424,13 24,13 C32.2710576,13 39,19.7287648 39,28.0003958 C39,36.2712352 32.2710576,43 24,43" id="Fill-9"></path>
                <path d="M18.8162405,34 C18.6068782,34 18.3982942,33.9206148 18.238743,33.7610663 C17.920419,33.4419691 17.920419,32.9251873 18.238743,32.6060901 L28.6064566,22.2393229 C28.925559,21.9202257 29.4423492,21.9202257 29.7606732,22.2393229 C30.0797756,22.5576418 30.0797756,23.0744236 29.7606732,23.3935208 L19.3937379,33.7610663 C19.2341868,33.9206148 19.0256028,34 18.8162405,34" id="Fill-11"></path>
                <path d="M27.5,30.5388001 C26.9703638,30.5388001 26.5390258,30.9700748 26.5390258,31.5003667 C26.5390258,32.0299252 26.9703638,32.4611999 27.5,32.4611999 C28.0303697,32.4611999 28.4609742,32.0299252 28.4609742,31.5003667 C28.4609742,30.9700748 28.0303697,30.5388001 27.5,30.5388001 M27.5,34 C26.1216256,34 25,32.8785389 25,31.5003667 C25,30.1214611 26.1216256,29 27.5,29 C28.8783744,29 30,30.1214611 30,31.5003667 C30,32.8785389 28.8783744,34 27.5,34" id="Fill-13"></path>
                <path d="M20.5,23.5388001 C19.9696303,23.5388001 19.5390258,23.9700748 19.5390258,24.5003667 C19.5390258,25.0299252 19.9696303,25.4611999 20.5,25.4611999 C21.0296362,25.4611999 21.4609742,25.0299252 21.4609742,24.5003667 C21.4609742,23.9700748 21.0296362,23.5388001 20.5,23.5388001 M20.5,27 C19.1216256,27 18,25.8785389 18,24.5003667 C18,23.1214611 19.1216256,22 20.5,22 C21.8783744,22 23,23.1214611 23,24.5003667 C23,25.8785389 21.8783744,27 20.5,27" id="Fill-15"></path>
            </g>
        </g>
    </g>
</svg>