<?xml version="1.0" encoding="UTF-8"?>
<svg width="47px" height="61px" viewBox="0 0 47 61" version="1.1" xmlns="http://www.w3.org/2000/svg" xmlns:xlink="http://www.w3.org/1999/xlink">
    <!-- Generator: Sketch 48.2 (47327) - http://www.bohemiancoding.com/sketch -->
    <title>Artboard</title>
    <desc>Created with Sketch.</desc>
    <defs></defs>
    <g id="Page-1" stroke="none" stroke-width="1" fill="none" fill-rule="evenodd">
        <g id="Artboard">
            <polygon id="Fill-1" fill="#4A2C87" points="3.9375 15.161 6.7195 59.11 39.8975 59.11 40.3815 51.463 42.6795 15.161"></polygon>
            <polyline id="Stroke-2" stroke="#FFFFFF" stroke-width="2" stroke-linecap="round" stroke-linejoin="round" points="40.3815 51.4638 42.6795 15.1608 3.9375 15.1608 6.7195 59.1098 39.8985 59.1098"></polyline>
            <polygon id="Fill-4" fill="#4A2C87" points="1 15.1607 45.631 15.1607 45.631 6.8237 1 6.8237"></polygon>
            <polygon id="Stroke-5" stroke="#FFFFFF" stroke-width="2" stroke-linecap="round" stroke-linejoin="round" points="1 15.1607 45.631 15.1607 45.631 6.8247 1 6.8247"></polygon>
            <polygon id="Fill-7" fill="#4A2C87" points="40.8679 0.9999 6.6359 0.9999 5.2449 6.8249 42.2589 6.8249"></polygon>
            <polygon id="Stroke-8" stroke="#FFFFFF" stroke-width="2" stroke-linecap="round" stroke-linejoin="round" points="40.8679 0.9999 6.6359 0.9999 5.2449 6.8249 42.2589 6.8249"></polygon>
            <path d="M4.563,25.0556 L42.052,25.0556 L4.563,25.0556 Z" id="Fill-10" fill="#5D219D"></path>
            <path d="M4.5632,25.0556 L42.0512,25.0556" id="Stroke-11" stroke="#FFFFFF" stroke-width="2" stroke-linecap="round" stroke-linejoin="round"></path>
        </g>
    </g>
</svg>